<svg width="41" height="41" viewBox="0 0 41 41" fill="none" xmlns="http://www.w3.org/2000/svg">
<g clip-path="url(#clip0_323_4248)">
<path d="M25.6012 12.2482L25.5604 12.2689C25.001 12.5495 24.5677 13.0298 24.3459 13.615C23.5437 12.8544 22.3531 12.6172 21.3578 13.1243C20.7471 13.4354 20.2899 13.9823 20.0919 14.6383C19.3051 14.0444 18.2462 13.8929 17.3493 14.3498L17.306 14.3719C16.8166 14.62 16.4276 15.0296 16.2051 15.5312L13.339 9.90489C12.6515 8.5554 11.0442 7.99182 9.76688 8.6425C8.49073 9.2926 8.00583 10.9208 8.69188 12.2699L12.4595 19.6842L10.9329 23.9322C10.4884 25.1595 10.8341 26.5335 11.8063 27.4046L18.9219 33.8086C18.9368 33.8222 18.9453 33.8205 18.9616 33.8324C20.8846 35.2044 23.3173 35.4079 25.3224 34.3865L31.2947 31.344C34.3339 29.7958 35.4747 25.9161 33.8289 22.6778C33.0954 21.2345 32.552 20.1644 32.108 19.29C30.9136 16.9378 30.4759 16.0757 29.1515 13.4909C28.4627 12.1468 26.8752 11.5992 25.6012 12.2482ZM31.1571 19.7817C31.6014 20.6562 32.1409 21.7192 32.8747 23.1627C34.2535 25.8755 33.3225 29.1099 30.8089 30.3904L24.8366 33.4328C23.1968 34.2681 21.2006 34.1023 19.6074 32.9782L12.518 26.6021C11.8704 26.0229 11.6404 25.1079 11.9371 24.291L13.1229 20.994L15.0371 24.7584C15.1712 25.0223 15.4935 25.1282 15.7579 24.995L15.7581 24.9949C16.0223 24.8601 16.128 24.5373 15.9951 24.2724L13.5238 19.4045L13.5219 19.4008L9.64475 11.7853C9.2264 10.9624 9.50368 9.97774 10.2548 9.59511C11.0059 9.21248 11.9658 9.56719 12.3853 10.3907L16.219 17.9162C16.2322 17.9423 16.2445 17.9692 16.258 17.9958C16.2638 18.0072 16.2707 18.0178 16.2765 18.0292L17.9156 21.2469C18.0498 21.5102 18.3721 21.615 18.6354 21.4808C18.8987 21.3467 19.0035 21.0244 18.8693 20.7611L17.1808 17.4465C16.7764 16.6525 17.0601 15.6989 17.7921 15.326L17.8354 15.304C18.5863 14.9215 19.5356 15.29 19.9551 16.1136L21.4549 19.0577C21.5891 19.321 21.9113 19.4258 22.1747 19.2916C22.438 19.1575 22.5427 18.8352 22.4086 18.5719L21.2316 16.2615C20.8121 15.438 21.0884 14.4536 21.8439 14.0687C22.595 13.6861 23.5539 14.0412 23.9735 14.8648L25.0836 17.0441C25.2178 17.3074 25.54 17.4121 25.8034 17.278C26.0667 17.1438 26.1714 16.8216 26.0373 16.5582L25.4361 15.378C25.0167 14.5547 25.2949 13.6054 26.0463 13.2226L26.087 13.2019C26.8363 12.8202 27.7804 13.1624 28.2006 13.9826C29.5242 16.5655 29.9634 17.4309 31.1571 19.7817Z" fill="white"/>
</g>
<defs>
<clipPath id="clip0_323_4248">
<rect width="30" height="30" fill="white" transform="translate(0 13.6177) rotate(-26.9952)"/>
</clipPath>
</defs>
</svg>
