<svg width="133" height="56" viewBox="0 0 133 56" fill="none" xmlns="http://www.w3.org/2000/svg">
<path d="M55.6765 0C64.2933 0 70.9988 5.92105 70.9988 16.6105C70.9988 17.2733 70.973 17.9177 70.9226 18.5435L69.6103 18.5541L67.0021 19.3687L66.4993 19.3728L66.498 19.2141L66.9995 19.0513L66.9982 18.8926L65.99 18.5834L62.9709 18.6078C63.0374 17.9782 63.0713 17.3122 63.0713 16.6105C63.0713 10.2789 60.3139 6.85263 55.6765 6.85263C51.0547 6.85263 48.2817 10.2789 48.2817 16.6105C48.2817 17.3562 48.3201 18.0616 48.3956 18.7258L40.4674 18.7899C40.4029 18.087 40.3699 17.3603 40.3699 16.6105C40.3699 5.92105 47.0283 0 55.6765 0Z" fill="#FF4002"/>
<path d="M44.0008 28.034C43.797 27.7854 43.6007 27.5283 43.412 27.2627L45.6438 27.1272L46.1466 27.1231L47.6592 27.6187C46.9263 28.196 45.8898 28.5218 44.5495 28.5961C44.5475 28.35 44.3646 28.1626 44.0008 28.034Z" fill="#FF4002"/>
<path d="M35.8774 26.4128V27.5554L33.8809 27.5715L33.3702 26.5917C31.9623 26.6031 31.2575 26.503 31.2558 26.2915L31.2532 25.9741L31.756 25.97C33.0324 26.2771 34.2404 26.426 35.3801 26.4168L35.8774 26.4128Z" fill="#FF4002"/>
<path d="M35.8774 21.0687V21.2278L35.8411 21.2395L35.3383 21.2436L35.8774 21.0687Z" fill="#FF4002"/>
<path d="M35.8774 18.8271V0.442106H26.2735L18.632 19.2214L18.9298 19.2816L20.4382 19.2694L22.0446 18.939L25.7094 18.9093L28.0595 12.9158H28.3259V18.8882L35.8774 18.8271Z" fill="#FF4002"/>
<path d="M28.3259 19.99V19.5077L28.6896 19.8691L28.6909 20.0278L30.1981 19.8569L30.7009 19.8529L31.205 20.0075L31.2021 19.6584L32.2077 19.6502L32.2119 20.158L31.2088 20.4835L32.2262 21.9353L31.2206 21.9434C31.2132 21.025 30.2483 20.3738 28.3259 19.99Z" fill="#FF4002"/>
<path d="M28.3259 29.027V28.5685C29.6209 28.5527 30.2671 28.3888 30.2646 28.0769L31.773 28.0647L32.2771 28.2193L32.2809 28.6953L31.7781 28.6994L31.7756 28.382C30.9824 28.3885 29.8325 28.6034 28.3259 29.027Z" fill="#FF4002"/>
<path d="M28.3259 29.2034L35.8774 29.1423V32.7789H28.3259V29.2034Z" fill="#FF4002"/>
<path d="M22.2157 27.8193L22.0263 28.3022L19.0029 28.3267L19.4952 27.0214L19.998 27.0173C20.0021 27.5232 20.7413 27.7905 22.2157 27.8193Z" fill="#FF4002"/>
<path d="M24.8593 21.0773L24.7865 21.2631L24.5782 21.3307L21.5549 20.5616L23.5661 20.5454L24.8593 21.0773Z" fill="#FF4002"/>
<path d="M21.6517 29.2574L20.3514 32.5737H15.526L14.2562 29.3173L21.6517 29.2574Z" fill="#FF4002"/>
<path d="M13.8712 28.3297L17.492 28.0215L17.4894 27.7042L14.3679 27.2216L13.5523 27.5121L13.8712 28.3297Z" fill="#FF4002"/>
<path fill-rule="evenodd" clip-rule="evenodd" d="M7.55148 23.7925C7.18565 23.8999 6.73397 23.9964 6.19644 24.082C6.49611 24.5466 6.94779 24.8811 7.55148 25.0855V25.8485L5.70801 25.8634L5.71315 26.4981L5.21034 26.5022L2.08779 25.8927C2.08334 25.3426 1.57831 25.0716 0.57269 25.0797L0.56627 24.2863C0.565584 24.2016 0.376828 24.1251 0 24.057V21.0534L3.15468 21.0279L3.6562 20.8652L4.16954 22.1623L6.6823 21.9833C7.01299 21.9806 7.30272 21.9551 7.55148 21.9068V23.7925ZM2.56826 23.1275L5.18286 23.1063L5.17901 22.6302L4.67492 22.4756L1.56007 22.8182L2.56826 23.1275Z" fill="#FF4002"/>
<path d="M12.2759 24.2385L14.8486 24.4881L14.8419 23.6629L14.3406 23.8574L13.335 23.8656L13.3309 23.3578L15.4401 23.0233L15.943 23.0192L15.9417 22.8606C13.5282 22.8801 12.3206 22.7841 12.3189 22.5725L12.3163 22.2551L12.815 21.7432L12.3122 21.7473L11.2649 21.6457L12.2759 24.2385Z" fill="#FF4002"/>
<path d="M10.2467 19.0344L13.7985 19.0057L16.9252 20.123L16.916 18.9805L17.1466 18.9786L9.60385 0.442106H0V19.4347L3.14158 19.4093L3.14415 19.7267L3.64696 19.7226C3.64353 19.2995 3.97703 19.0852 4.64744 19.0797L7.55148 19.0562V12.8053H7.81782L10.2467 19.0344Z" fill="#FF4002"/>
<path d="M7.55148 20.198C6.62712 20.1921 6.16363 20.0268 6.161 19.7023L5.15821 20.0595L4.65386 19.8732L3.64824 19.8813L3.65492 20.7065L4.15773 20.7024C4.87454 20.4905 6.00579 20.3756 7.55148 20.3578V20.198Z" fill="#FF4002"/>
<path d="M0 28.7038V28.0044L0.0935067 28.0036L1.60578 28.4675L1.61092 29.1022L1.10811 29.1063C0.667433 29.1098 0.298063 28.9757 0 28.7038Z" fill="#FF4002"/>
<path d="M0 29.4326L3.72528 29.4025L6.23804 29.2235L6.74213 29.3781L7.24494 29.374L7.24109 28.898L6.73699 28.7433L7.55148 28.7367V32.7789H0V29.4326Z" fill="#FF4002"/>
<path d="M7.55148 26.931V27.1533C7.00106 27.2952 6.727 27.5078 6.72929 27.7912L6.22648 27.7953L6.22366 27.4462L7.55148 26.931Z" fill="#FF4002"/>
<path d="M44.9408 29.069L45.6595 29.0632L50.1835 28.8679L53.805 28.9973L65.5707 28.9021L65.5681 28.5847L63.5556 28.4423L62.9522 28.4472L64.0507 27.4861L63.5479 27.4902C63.5434 26.9401 63.1725 26.668 62.435 26.674C62.4386 27.1183 62.1052 27.3432 61.4348 27.3486L60.4292 27.3567L60.9307 27.194L59.9184 26.3769L59.9171 26.2182L62.4325 26.3566L65.0471 26.3354L65.5486 26.1727C65.5443 25.6437 65.8774 25.3765 66.5478 25.3711C66.9605 25.3678 67.9663 25.028 69.5653 24.3519C69.4219 24.6942 69.2686 25.027 69.1058 25.3504L68.0562 25.3589L67.0532 25.6844L67.0596 26.4778C67.0613 26.6882 67.4454 26.8258 68.2119 26.8905C68.1454 26.9906 68.0778 27.0895 68.0093 27.1873C67.3804 27.2431 67.0665 27.3346 67.0676 27.4617L67.0714 27.9378L67.3424 28.0634C64.5572 31.4384 60.4046 33.2211 55.6765 33.2211C51.4361 33.2211 47.6741 31.7862 44.9408 29.069Z" fill="#FF4002"/>
<path d="M82.7568 28.763V32.7789H90.4023V28.7012L82.7568 28.763Z" fill="#FF4002"/>
<path d="M90.4023 26.3049V26.7044L89.5867 26.4543L88.06 24.2131L89.5684 24.2009L90.0805 25.3394L89.5828 25.9782C89.7053 26.1208 89.9785 26.2297 90.4023 26.3049Z" fill="#FF4002"/>
<path d="M102.732 21.9036L104.834 21.6652L105.943 21.9736L107.448 21.4854L107.444 20.9776C105.969 20.9895 104.928 20.7863 104.321 20.3681L103.818 20.3721L103.317 20.5349L102.44 20.542C102.374 20.1675 102.318 19.7853 102.271 19.3955C103.517 19.9391 104.569 20.2073 105.426 20.2004L108.943 19.8546L108.949 20.648L108.448 20.8108C109.306 21.1025 110.058 21.2947 110.703 21.3874C110.747 21.5192 110.793 21.6485 110.841 21.7753L107.45 21.8027C105.043 22.6051 103.842 23.3131 103.847 23.9267L103.374 23.9305C103.226 23.5476 103.09 23.1536 102.966 22.7487L103.835 22.4668L103.834 22.3081L102.841 22.3161C102.803 22.1798 102.767 22.0423 102.732 21.9036Z" fill="#FF4002"/>
<path d="M105.675 27.9541C108.451 31.3922 112.629 33.2211 117.416 33.2211C121.989 33.2211 126.024 31.5534 128.803 28.3904L123.394 28.4342L123.391 28.1168C125.402 28.1006 126.407 27.9866 126.405 27.7751L125.397 27.4658L124.392 27.474C123.721 27.4794 123.02 27.8025 122.287 28.4432L106.499 28.5709L106.993 27.456L106.992 27.2974L106.489 27.3014L105.675 27.9541Z" fill="#FF4002"/>
<path d="M132.16 21.7278C132.319 21.071 132.447 20.3878 132.541 19.6786C131.594 19.5226 131.067 19.3632 130.962 19.2003L131.464 19.0376L131.462 18.8471L129.447 18.3873L128.852 19.3761L125.332 19.4046C125.33 19.1149 125.114 18.9214 124.686 18.824C124.649 19.1332 124.604 19.4334 124.552 19.7244C124.642 19.7262 124.735 19.7268 124.832 19.726L125.333 19.5632L125.837 19.7179L125.336 19.8806L125.34 20.3567L125.849 21.1778L124.168 21.277C124.088 21.5257 124.001 21.7657 123.907 21.9968C124.202 22.1614 124.35 22.3156 124.351 22.4595L125.357 22.4513L125.854 21.8125L130.484 22.2512C130.482 22.0459 131.041 21.8714 132.16 21.7278Z" fill="#FF4002"/>
<path d="M116.753 26.3441C116.97 26.3603 117.191 26.3684 117.416 26.3684C118.415 26.3684 119.327 26.2095 120.142 25.8968L120.255 25.8887L120.258 26.2061L119.252 26.2142L119.256 26.722L118.76 27.5195L118.257 27.5236L118.256 27.3649L116.753 26.3441Z" fill="#FF4002"/>
<path d="M110.291 19.7727C110.218 19.3797 110.159 18.97 110.116 18.5438L108.932 18.5533C108.938 19.2117 109.391 19.6181 110.291 19.7727Z" fill="#FF4002"/>
<path d="M110.086 18.2266C110.043 17.711 110.021 17.1722 110.021 16.6105C110.021 10.2789 112.794 6.85263 117.416 6.85263C122.054 6.85263 124.811 10.2789 124.811 16.6105C124.811 17.1293 124.792 17.6285 124.756 18.1079L129.444 18.07L132.69 18.1575C132.722 17.6535 132.738 17.1378 132.738 16.6105C132.738 5.92105 126.033 0 117.416 0C108.768 0 102.109 5.92105 102.109 16.6105C102.109 17.1842 102.129 17.7444 102.167 18.2907L104.807 18.2693L108.43 18.5574L108.427 18.24L110.086 18.2266Z" fill="#FF4002"/>
<path d="M90.4023 23.8768L89.5659 23.8835L89.5592 23.0584L90.0607 22.8956L89.0525 22.5864C87.6447 22.5978 86.4402 22.8826 85.439 23.4408L84.9362 23.4449C84.9307 22.7679 86.1339 22.3244 88.5459 22.1144L88.0392 21.6424L85.9274 21.6595C85.257 21.6649 84.9231 21.8263 84.9257 22.1437L82.7568 22.0244V19.9677C83.2481 19.9237 83.7973 19.8993 84.4046 19.8944L85.4128 20.2037L85.4141 20.3623L83.9095 20.8506L84.9192 21.3503L88.0338 20.9759L88.5366 20.9719L89.0407 21.1265L89.0394 20.9678C89.4145 21.122 89.8688 21.2391 90.4023 21.319V23.8768Z" fill="#FF4002"/>
<path d="M90.4023 19.7508V6.78947H100.132V0.442106H73.012V6.78947H82.7568V18.4477L89.5215 18.393L89.524 18.7104L88.521 19.0359L88.5197 18.8772L86.912 19.0489L86.9148 19.398L89.5294 19.3769C89.9535 19.3734 90.2445 19.4981 90.4023 19.7508Z" fill="#FF4002"/>
<path d="M82.7568 24.5043V25.8747L83.4473 25.8692L83.455 26.8213L83.9593 27.0076L83.9606 27.1663C84.9662 27.1582 85.4672 26.9319 85.4637 26.4876L88.5798 26.3037L88.0757 26.1491L88.0744 25.9904L87.5729 26.1532L86.4667 26.1621L84.9544 25.6983L84.4462 25.0358L82.9378 25.0481L83.4393 24.8853L83.4368 24.5679L82.7568 24.5043Z" fill="#FF4002"/>
<path d="M60.38 24.669L64.0322 25.201L64.0284 24.725L62.9222 24.7339L62.9183 24.2579L63.5204 24.0943L63.5191 23.9356L66.0345 24.0739L66.5373 24.0699L66.5347 23.7525L63.5166 23.6182L64.0181 23.4555L64.0165 23.2651L62.4063 23.1194L62.3973 22.0086L62.1619 22.0105C61.7189 23.0942 61.1203 23.9831 60.38 24.669Z" fill="#FF4002"/>
<path d="M62.3004 21.6517L63.4996 21.5236L63.5009 21.6823C63.503 21.9362 64.6779 22.1382 67.0257 22.2885L67.0206 21.6538L62.8909 20.862L62.8947 21.338L62.4073 21.342C62.373 21.4468 62.3373 21.55 62.3004 21.6517Z" fill="#FF4002"/>
<path d="M129.491 23.8779L129.49 23.7192L131.002 24.1831L131.004 24.3417L129.491 23.8779Z" fill="#FF4002"/>
<path d="M125.88 25.0497L128.394 25.0294L128.406 26.4576L127.4 26.4657C127.398 26.1906 126.726 25.9316 125.383 25.6885C125.241 24.7163 124.566 24.2351 123.36 24.2449L123.357 23.9275L124.363 23.9194L124.365 24.2368L127.382 24.2124L127.386 24.6884L126.882 24.5338L125.879 24.891L125.88 25.0497Z" fill="#FF4002"/>
<path d="M109.992 25.1783L109.999 26.1304L113.13 27.7238L113.132 28.0412L112.631 28.2039L111.021 28.0582L111.013 27.1061L108.996 26.4559L108.494 26.46C108.496 26.7985 108.162 26.9705 107.492 26.9759L106.989 26.98L108.485 25.3492L107.98 25.1946L108.477 24.3653L110.488 24.349L110.994 24.821L109.992 25.1783Z" fill="#FF4002"/>
<path d="M53.7921 27.4104L55.8034 27.3941L55.8072 27.8702C54.465 27.7118 53.7933 27.5585 53.7921 27.4104Z" fill="#FF4002"/>
<path d="M52.277 26.5975L52.7798 26.5934L52.7824 26.9108L51.274 26.923L52.277 26.5975Z" fill="#FF4002"/>
<path d="M46.1338 25.5363L47.6422 25.5241L47.6473 26.1588L46.6417 26.167L46.1351 25.695L46.1338 25.5363Z" fill="#FF4002"/>
<path d="M43.4773 20.3843L44.4829 20.3761L43.9814 20.5389L44.4906 21.3282L43.4879 21.6855L42.985 21.6896L41.9728 20.8725L43.4773 20.3843Z" fill="#FF4002"/>
<path d="M42.5043 24.423L43.5099 24.4149L44.5233 25.3589L44.5248 25.5493L44.022 25.5534L42.5095 25.0578L42.5043 24.423Z" fill="#FF4002"/>
<path d="M34.3406 22.2356L34.8434 22.2315L35.3501 22.7035L35.3513 22.8622L34.3457 22.8703L34.3406 22.2356Z" fill="#FF4002"/>
<path d="M17.9398 21.2257L18.9429 20.9002L18.9493 21.6936L18.4465 21.6977L17.9398 21.2257Z" fill="#FF4002"/>
<path d="M16.9278 20.4404L17.4306 20.4363L17.4331 20.7537L16.9316 20.9165L15.926 20.9246L15.9247 20.7659L16.9278 20.4404Z" fill="#FF4002"/>
<path d="M13.8142 20.9417L14.317 20.9376L13.8193 21.5764L12.8112 21.2672L13.8142 20.9417Z" fill="#FF4002"/>
<path d="M14.6609 48.4787C14.6609 43.8223 11.5459 41 7.33442 41C3.107 41 0 43.8223 0 48.4787C0 53.128 3.107 55.9573 7.33442 55.9573C11.5459 55.9573 14.6609 53.1351 14.6609 48.4787ZM12.2293 48.4787C12.2293 52.0261 10.1315 53.9526 7.33442 53.9526C4.52938 53.9526 2.43951 52.0261 2.43951 48.4787C2.43951 44.9313 4.52938 43.0047 7.33442 43.0047C10.1315 43.0047 12.2293 44.9313 12.2293 48.4787Z" fill="#FF4002"/>
<path d="M18.7291 55.7583H21.1845V50.6398H24.522C28.2965 50.6398 30.1638 48.5995 30.1638 45.9123C30.1638 43.2322 28.3124 41.1991 24.5299 41.1991H18.7291V55.7583ZM21.1845 48.7773V43.0829H24.2677C26.6993 43.0829 27.6925 44.263 27.6925 45.9123C27.6925 47.5616 26.6993 48.7773 24.2995 48.7773H21.1845Z" fill="#FF4002"/>
<path d="M34.0493 55.7583H44.3477V53.8673H36.5047V49.41H43.72V47.5261H36.5047V43.09H44.2524V41.1991H34.0493V55.7583Z" fill="#FF4002"/>
<path d="M61.6743 41.1991H59.2428V51.891H59.0918L50.8118 41.1991H48.5391V55.7583H50.9945V45.0806H51.1455L59.4176 55.7583H61.6743V41.1991Z" fill="#FF4002"/>
<path d="M73.192 55.7583H75.6474V49.41H82.5607V47.5261H75.6474V43.09H83.2838V41.1991H73.192V55.7583Z" fill="#FF4002"/>
<path d="M87.3103 55.7583H97.6087V53.8673H89.7657V49.41H96.9809V47.5261H89.7657V43.09H97.5133V41.1991H87.3103V55.7583Z" fill="#FF4002"/>
<path d="M110.676 45.0237H113.044C112.973 42.6919 110.668 41 107.363 41C104.097 41 101.594 42.6706 101.594 45.1801C101.594 47.2062 103.215 48.3934 105.829 49.0261L107.752 49.4953C109.492 49.9076 110.835 50.4194 110.835 51.7133C110.835 53.1351 109.317 54.0735 107.227 54.0735C105.336 54.0735 103.763 53.3199 103.62 51.7346H101.156C101.315 54.372 103.596 56 107.243 56C111.065 56 113.267 54.2014 113.267 51.7346C113.267 49.1114 110.652 48.0948 108.586 47.6398L106.997 47.2701C105.726 46.9787 104.033 46.4455 104.041 45.0521C104.041 43.8152 105.304 42.8981 107.307 42.8981C109.174 42.8981 110.501 43.6801 110.676 45.0237Z" fill="#FF4002"/>
<path d="M116.405 43.09H121.475V55.7583H123.922V43.09H129V41.1991H116.405V43.09Z" fill="#FF4002"/>
</svg>
